PathFileType	3	(X/Y/Z)	D:\minhoCalibration\240510\subject3_KPNP\preferred\preferred11.trc
DataRate	CameraRate	NumFrames	NumMarkers	Units	OrigDataRate	OrigDataStartFrame	OrigNumFrames
200.0	200.0	33	10	mm	200.0	140	126	
Frame#	Time	Left_Ankle_Outer1			Left_Ankle_Inner1			Left_Knee_Outer1			Left_Knee_Inner1			Left_Wrist1			Right_Wrist1			Right_Knee_Inner1			Right_Knee_Outer1			Right_Ankle_Inner1			Right_Ankle_Outer1			
		X1	Y1	Z1	X2	Y2	Z2	X3	Y3	Z3	X4	Y4	Z4	X5	Y5	Z5	X6	Y6	Z6	X7	Y7	Z7	X8	Y8	Z8	X9	Y9	Z9	X10	Y10	Z10	
140	0.69	-346.50229	70.861938	-523.57996	-402.32928	80.620079	-516.50055	-244.1304	492.21024	-409.07523	-355.46213	499.4342	-394.26114	-232.73396	819.61438	-591.24756	-540.22723	861.64972	-766.66309	-578.8598	415.99603	-824.70856	-633.04346	494.51645	-897.36603	-410.47162	116.56999	-1052.6974	-456.12158	156.13683	-1132.3617
141	0.695	-347.46527	69.987793	-523.0072	-402.76324	80.203903	-516.35852	-242.23781	489.53851	-406.59213	-353.57825	497.56995	-390.44815	-229.48817	820.73297	-587.97058	-541.19818	862.1366	-756.90076	-584.53369	416.77203	-815.19702	-639.39539	496.82986	-886.84241	-413.97635	123.44264	-1050.6124	-460.88644	163.3472	-1129.7139
142	0.7	-347.58438	69.827774	-522.87195	-402.91125	80.153984	-516.15637	-240.02678	487.11411	-404.16022	-350.58469	495.27515	-386.71362	-226.9597	822.15997	-584.38422	-541.92828	862.88458	-746.92426	-589.92249	417.50665	-805.36859	-645.78229	499.31635	-875.62714	-418.13821	130.73979	-1048.015	-466.9234	170.63943	-1125.2814
143	0.705	-347.3735	69.937721	-522.6347	-402.83298	80.376663	-515.78168	-237.92661	485.00745	-401.56912	-348.34381	493.51755	-383.04099	-223.72859	824.02728	-581.19995	-542.46649	863.90765	-736.88531	-595.51215	418.70129	-794.62524	-651.96057	501.70456	-863.62842	-423.03336	138.15804	-1045.0017	-473.2608	179.04575	-1121.072
144	0.71	-346.40128	70.511269	-522.75604	-402.29794	80.870537	-515.53979	-235.87895	483.30716	-398.8287	-345.30988	492.11887	-379.83835	-220.33382	826.17059	-577.9574	-542.94373	865.28857	-726.59155	-601.14136	420.1637	-783.14508	-657.96429	504.03119	-850.77716	-428.30307	145.97688	-1041.86	-480.56033	187.26984	-1116.3762
145	0.715	-345.61014	70.862312	-522.23102	-401.49371	81.380333	-515.15289	-233.83173	482.18839	-396.09222	-342.80527	491.33618	-376.07968	-216.85188	828.40448	-574.77728	-543.27393	866.70721	-716.31628	-606.92212	422.05499	-770.3797	-663.51196	506.26303	-837.23987	-434.06866	154.13342	-1038.0587	-488.23663	195.89699	-1111.1415
146	0.72	-344.88052	70.497765	-522.00555	-400.40836	81.96257	-514.97736	-231.87025	481.41797	-393.30933	-340.21695	490.76773	-372.87091	-213.31757	830.62726	-571.67664	-543.33698	868.48279	-705.992	-612.42004	423.7128	-757.48364	-668.77795	508.59521	-822.91162	-440.44772	162.74153	-1033.7218	-496.50513	204.69043	-1105.0259
147	0.725	-343.57874	71.087662	-521.62549	-399.26974	82.546242	-514.77551	-229.88667	481.14981	-390.63162	-337.40417	490.22668	-369.7998	-209.33418	833.02136	-568.77411	-543.34955	870.38184	-695.4483	-617.98859	425.85391	-743.11212	-673.90204	511.15848	-808.2276	-447.02219	171.46326	-1028.9017	-505.48196	214.31509	-1098.5088
148	0.73	-342.20001	71.443199	-521.33856	-397.95868	83.116043	-514.73004	-227.97055	481.11484	-388.09619	-334.90173	490.17023	-366.96527	-206.03249	835.26196	-565.58679	-543.27454	872.50281	-684.92554	-623.21692	428.23993	-727.92792	-678.58795	513.80829	-792.90881	-453.71878	180.72337	-1023.5798	-515.28925	224.08838	-1090.8914
149	0.735	-341.1713	71.659981	-521.15259	-396.8591	83.705093	-514.61432	-225.91905	481.43103	-385.92542	-332.19043	490.24048	-364.55484	-202.27716	837.8125	-562.98627	-542.94556	874.91663	-674.2395	-628.00012	430.71753	-711.55371	-682.96387	516.41998	-776.86816	-460.62234	190.81345	-1017.472	-525.07751	234.02902	-1082.5366
150	0.74	-340.16309	72.02359	-520.90546	-395.73343	84.317749	-514.46295	-223.91629	481.70084	-383.94919	-329.43008	490.15195	-362.58496	-198.05632	840.52826	-560.54602	-542.26007	877.6568	-663.74127	-631.75958	433.33133	-694.77283	-687.1698	519.01959	-759.91504	-467.4946	201.59738	-1010.7278	-534.95209	244.3407	-1073.3668
151	0.745	-339.95612	72.002602	-520.23962	-394.7598	84.911942	-514.3866	-221.64056	482.08221	-382.43884	-327.00366	490.33618	-360.7066	-194.77223	843.13513	-558.35535	-542.03326	880.4859	-652.40405	-634.55115	435.91202	-677.32404	-691.02667	521.55682	-742.24786	-474.42917	212.88008	-1003.1669	-544.76062	254.87825	-1063.3436
152	0.75	-339.17551	72.495323	-520.09937	-393.95563	85.559753	-514.39471	-219.31238	482.33325	-381.37225	-323.89337	490.48553	-359.39059	-190.96835	845.66669	-556.60248	-541.47015	883.6546	-641.52051	-636.08685	438.54047	-659.51654	-694.76636	524.2428	-723.70282	-481.03354	225.12514	-994.68323	-554.81354	265.35376	-1052.084
153	0.755	-338.55804	72.906654	-520.02081	-393.14307	86.161438	-514.25891	-216.78607	482.52722	-380.85165	-321.20349	490.45166	-358.14502	-187.07762	848.25769	-554.90802	-540.65436	887.07605	-630.2356	-636.19269	441.23154	-641.6225	-698.22119	527.06683	-704.09735	-487.82495	238.36514	-985.46796	-564.56091	276.46814	-1040.5085
154	0.76	-337.88849	73.416557	-520.02185	-392.48721	86.849297	-514.09607	-214.66096	482.44186	-380.51566	-318.16449	490.35095	-357.19696	-182.88388	851.10291	-553.80878	-539.56708	891.27051	-618.70728	-634.67615	443.202	-624.76819	-701.37756	530.22083	-683.5899	-493.75778	252.68567	-975.12311	-573.71985	288.5318	-1027.7501
155	0.765	-337.42188	73.870255	-520.0249	-392.00647	87.640358	-513.92743	-212.0209	482.3479	-380.90683	-315.2258	490.05307	-356.73325	-179.11952	853.71851	-552.92065	-538.39917	895.49622	-607.14038	-632.66003	446.79398	-604.02771	-704.14301	533.61938	-661.83472	-499.77661	267.40851	-963.79077	-582.26642	301.91614	-1014.2023
156	0.77	-336.98682	74.414696	-519.95654	-391.4339	88.469276	-513.65216	-209.45169	482.16669	-381.85498	-312.26636	489.93533	-356.33359	-175.98207	855.98419	-552.35248	-536.17316	900.66071	-595.22681	-629.79993	450.19183	-585.51666	-705.95807	537.26343	-638.45483	-506.00009	282.19479	-951.17914	-590.74426	315.50946	-999.03174
157	0.775	-336.52884	75.136063	-519.88928	-390.82095	89.478828	-513.49469	-206.76537	482.07141	-383.25565	-309.13663	490.37958	-355.32901	-171.98541	858.6698	-552.39716	-533.86536	905.65509	-583.93195	-626.31543	454.06281	-567.14386	-707.81171	542.03088	-614.2135	-512.32117	297.14355	-937.44159	-598.17621	330.99734	-983.28528
158	0.78	-335.83176	76.061066	-519.85638	-390.19321	90.70121	-513.07935	-204.09248	482.03995	-384.94128	-305.92075	489.70844	-356.38516	-168.41554	861.06512	-552.66327	-531.5119	911.19879	-572.25159	-621.99359	458.36151	-548.29346	-709.37878	547.79852	-589.99878	-518.64221	312.28973	-922.61719	-605.86072	346.17801	-965.74939
159	0.785	-335.22647	77.170898	-519.75311	-389.53555	92.042419	-512.72571	-201.61186	482.21191	-386.85431	-302.78458	489.88538	-356.52658	-164.81819	863.46503	-553.21558	-527.88855	917.10077	-561.25116	-617.59686	463.50409	-529.49744	-709.52075	553.4433	-563.85046	-524.93414	327.41827	-906.91266	-612.4292	362.58325	-948.427
160	0.79	-334.57272	78.52478	-519.5498	-388.7536	93.530998	-512.32599	-199.20123	482.58926	-388.91125	-299.76389	490.47656	-356.74887	-161.43964	865.77679	-554.2146	-523.4928	923.73553	-550.34143	-613.27081	469.37079	-510.55826	-709.29846	560.09271	-537.73224	-531.29663	342.54102	-890.36938	-619.40924	378.84708	-928.64594
161	0.795	-333.7991	80.053802	-519.30341	-387.97559	95.291237	-511.76898	-197.34805	483.05472	-391.14529	-296.6077	491.28592	-356.9158	-157.41281	868.48126	-555.77374	-520.61084	930.23505	-538.72345	-609.16248	476.04013	-491.17975	-708.23895	567.67767	-511.23947	-537.99402	357.59039	-873.06305	-626.40356	396.16968	-908.41296
162	0.8	-333.15689	81.727516	-518.98657	-387.20932	97.285629	-511.02759	-194.75012	484.15134	-393.32034	-293.37756	492.6185	-357.01801	-154.96851	870.32446	-557.19287	-515.65924	937.4328	-529.25409	-605.32214	483.6311	-471.20752	-706.37463	576.31812	-484.75583	-544.92365	372.67575	-855.13043	-633.85101	413.40195	-887.4588
163	0.805	-332.43665	83.622055	-518.52924	-386.38248	99.388565	-510.20508	-192.1828	485.55011	-395.43539	-289.9624	494.48502	-357.15903	-152.26857	872.52301	-559.35358	-510.92761	944.35168	-520.0083	-601.84247	492.33994	-450.34384	-703.79047	586.3302	-458.40875	-552.28491	387.78424	-836.31897	-641.16101	430.84653	-865.92474
164	0.81	-331.86523	85.701469	-517.97235	-385.64035	101.66922	-509.21542	-190.02074	487.21118	-397.20993	-286.32349	496.65244	-357.36011	-149.23897	874.71869	-562.13971	-505.16391	951.89752	-510.58698	-598.51892	502.26147	-428.23413	-700.28479	597.38239	-432.56964	-559.01868	403.14005	-817.31274	-649.02234	448.5242	-843.64203
165	0.815	-331.30167	87.922142	-517.37445	-385.27887	104.13505	-507.90881	-187.85927	489.23172	-398.84183	-283.16476	498.99756	-357.16916	-146.37668	876.99707	-565.4458	-498.50372	959.69635	-502.38831	-594.80798	513.31958	-404.47311	-695.95959	609.55664	-407.28696	-566.96912	418.72693	-797.41418	-657.33728	465.82635	-819.62695
166	0.82	-330.79111	90.269051	-516.68518	-384.44061	106.65212	-507.14575	-185.29198	491.59683	-400.63879	-279.39276	501.51669	-357.5076	-143.75273	879.27191	-569.38043	-493.05389	967.45239	-493.36642	-591.00751	525.38525	-380.63239	-690.97247	622.89929	-382.51715	-575.28296	434.19397	-776.70862	-665.39764	483.44318	-795.40417
167	0.825	-330.33215	92.839485	-515.95148	-384.02908	109.38112	-505.61197	-182.30371	494.10638	-402.66721	-275.6842	504.36658	-357.78979	-141.29526	881.53497	-573.75568	-485.21176	975.52783	-488.50119	-586.64142	538.565	-356.15085	-685.27478	637.35254	-358.18329	-584.29138	449.59818	-755.05737	-674.0481	501.36917	-769.51294
168	0.83	-330.09918	95.374535	-515.09222	-383.54031	112.16943	-504.0123	-179.53506	496.83142	-404.47693	-271.97299	507.33774	-358.00604	-138.95386	883.77728	-578.62048	-479.01627	983.03558	-480.38928	-581.62085	552.88513	-331.97153	-678.69983	652.6925	-334.26889	-593.50677	465.26108	-732.79272	-683.3479	519.64941	-743.27618
169	0.835	-329.18051	98.376549	-514.64069	-383.20624	115.12994	-502.30219	-176.59601	499.59799	-406.38858	-267.92853	510.55713	-358.33551	-137.1535	885.73322	-583.67432	-472.06802	991.08081	-474.1055	-575.84314	568.05042	-307.62546	-671.41589	669.0802	-310.51138	-603.23572	481.00107	-709.53381	-691.80908	535.79486	-716.84869
170	0.84	-329.10141	101.008	-513.4834	-382.47229	118.2112	-500.80597	-173.55965	502.39243	-408.37128	-264.16971	514.21783	-357.86063	-135.45354	887.64331	-589.26093	-465.09116	998.98987	-468.48181	-569.00958	584.07965	-283.54822	-663.05139	686.33551	-287.10526	-612.98987	496.65976	-685.73126	-701.45502	553.19781	-688.14417
171	0.845	-328.87323	103.52184	-512.573	-382.49811	121.30721	-498.5256	-170.44688	504.9888	-410.28403	-259.89505	517.83069	-357.86789	-133.77539	889.47528	-595.22168	-458.02164	1007.4333	-462.26785	-560.79425	601.27576	-260.30884	-653.63898	704.61743	-263.88309	-624.12915	511.87836	-660.15991	-710.42218	569.42377	-659.22858
172	0.85	-328.74371	106.22503	-511.31476	-382.01587	123.96918	-496.23978	-167.36693	507.48901	-412.28326	-255.18349	521.60016	-358.18015	-132.55609	890.99927	-601.52911	-450.60681	1014.7412	-459.35303	-552.47974	618.69415	-237.41908	-642.94965	723.62103	-241.11453	-634.24304	527.48883	-634.48914	-720.14343	587.0097	-630.42572
